# xmcd
#
# Track frame offsets:
#	150
#	13215
#	24781
#	42464
#	53476
#	68668
#	86777
#	102949
#	114492
#	131889
#	144847
#	162214
#	177532
#
# Disc length: 2563 seconds
#
# Revision: 1
# Processed by: cddbd v1.5.2PL0 Copyright (c) Steve Scherf et al.
# Submitted via: audiograbber 1.83.01
#
DISCID=aa0a010d
DTITLE=Poncho Ponys - Country für Kinder
DYEAR=2009
DGENRE=Country
TTITLE0=King Kong Kitchie
TTITLE1=Der vergessliche Cowboy
TTITLE2=Kaugummikau'n
TTITLE3=Ding Ding Dong
TTITLE4=Hey Old Rufus
TTITLE5=Loreen schaut in die Luft
TTITLE6=Lily Sue, die hungrigste Kuh
TTITLE7=Mrs. Mabel Chase
TTITLE8=Kaw-Liga
TTITLE9=Der schlimme Jim
TTITLE10=Geisterreiter
TTITLE11=Mein Poncho Pony
TTITLE12=Schaukelpferd
EXTD=
EXTT0=
EXTT1=
EXTT2=
EXTT3=
EXTT4=
EXTT5=
EXTT6=
EXTT7=
EXTT8=
EXTT9=
EXTT10=
EXTT11=
EXTT12=
PLAYORDER=
